<?xml version="1.0" encoding="UTF-8" standalone="no"?>
<svg
   xmlns:dc="http://purl.org/dc/elements/1.1/"
   xmlns:cc="http://creativecommons.org/ns#"
   xmlns:rdf="http://www.w3.org/1999/02/22-rdf-syntax-ns#"
   xmlns:svg="http://www.w3.org/2000/svg"
   xmlns="http://www.w3.org/2000/svg"
   xmlns:sodipodi="http://sodipodi.sourceforge.net/DTD/sodipodi-0.dtd"
   xmlns:inkscape="http://www.inkscape.org/namespaces/inkscape"
   version="1.2"
   baseProfile="tiny"
   id="Слой_1"
   x="0px"
   y="0px"
   width="268px"
   height="250px"
   viewBox="0 0 268 250"
   xml:space="preserve"
   sodipodi:version="0.32"
   inkscape:version="0.46"
   sodipodi:docname="cis-logo-cube.svg"
   inkscape:output_extension="org.inkscape.output.svg.inkscape"
   inkscape:export-filename="D:\xampp\htdocs\wiki12\skins\custis\cis-logo-cube.png"
   inkscape:export-xdpi="67.868134"
   inkscape:export-ydpi="67.868134"><metadata
   id="metadata254"><rdf:RDF><cc:Work
       rdf:about=""><dc:format>image/svg+xml</dc:format><dc:type
         rdf:resource="http://purl.org/dc/dcmitype/StillImage" /></cc:Work></rdf:RDF></metadata><defs
   id="defs252"><inkscape:perspective
     sodipodi:type="inkscape:persp3d"
     inkscape:vp_x="0 : 125 : 1"
     inkscape:vp_y="0 : 1000 : 0"
     inkscape:vp_z="268 : 125 : 1"
     inkscape:persp3d-origin="134 : 83.333333 : 1"
     id="perspective256" /></defs><sodipodi:namedview
   inkscape:window-height="990"
   inkscape:window-width="1680"
   inkscape:pageshadow="2"
   inkscape:pageopacity="0.0"
   guidetolerance="10.0"
   gridtolerance="10.0"
   objecttolerance="10.0"
   borderopacity="1.0"
   bordercolor="#666666"
   pagecolor="#ffffff"
   id="base"
   showgrid="false"
   inkscape:zoom="1.848"
   inkscape:cx="23.880952"
   inkscape:cy="125"
   inkscape:window-x="-4"
   inkscape:window-y="-4"
   inkscape:current-layer="Слой_1" />
<g
   id="g3"
   transform="matrix(0.9919235,0,0,0.9919235,2.1645022,2.0191252)"
   style="opacity:0.40506329">
	<g
   id="g5">
		<path
   d="M 121,0 C 117.122,3.122 111.878,4.878 108,8 C 107.667,8 107.333,8 107,8 C 107,10.333 107,12.667 107,15 C 104.445,14.555 102.402,13.598 101,12 C 96.088,14.422 91.314,16.981 87,20 C 86.667,20 86.333,20 86,20 C 86,22.333 86,24.667 86,27 C 83.445,26.555 81.402,25.598 80,24 C 75.088,26.422 70.314,28.981 66,32 C 65.667,32 65.333,32 65,32 C 65,34.333 65,36.667 65,39 C 62.445,38.555 60.402,37.598 59,36 C 54.088,38.422 49.314,40.981 45,44 C 44.667,44 44.333,44 44,44 C 44,46.333 44,48.667 44,51 C 41.445,50.555 39.402,49.598 38,48 C 33.088,50.422 28.314,52.981 24,56 C 23.667,56 23.333,56 23,56 C 23,58.333 23,60.667 23,63 C 20.445,62.555 18.402,61.598 17,60 C 12.088,62.422 7.314,64.981 3,68 C 2.667,68 2.333,68 2,68 C 2,73.333 2,78.667 2,84 C 3.342,86.009 6.388,87.517 9,89 C 11.541,90.443 14.258,92.351 16,93 C 16.807,93.301 16.977,92.521 17,92 C 22.646,90.646 25.833,86.833 31,85 C 31,82.667 31,80.333 31,78 C 33.901,77.511 36.752,82.142 38,80 C 43.646,78.646 46.833,74.833 52,73 C 52,70.667 52,68.333 52,66 C 54.901,65.511 57.752,70.142 59,68 C 64.646,66.646 67.833,62.833 73,61 C 73,58.667 73,56.333 73,54 C 75.901,53.511 78.752,58.142 80,56 C 85.646,54.646 88.833,50.833 94,49 C 94,46.667 94,44.333 94,42 C 96.901,41.511 99.752,46.142 101,44 C 106.646,42.646 109.833,38.833 115,37 C 115,34.667 115,32.333 115,30 C 117.901,29.511 120.752,34.142 122,32 C 124.928,32.261 125.072,29.739 128,30 C 128,32 128,34 128,36 C 129.342,38.009 132.389,39.517 135,41 C 137.491,42.415 140.312,44.417 142,45 C 142.816,45.282 142.969,44.535 143,44 C 145.928,44.261 146.072,41.739 149,42 C 149,44 149,46 149,48 C 150.342,50.009 153.388,51.517 156,53 C 158.491,54.415 161.312,56.418 163,57 C 163.816,57.282 163.969,56.535 164,56 C 166.928,56.261 167.072,53.739 170,54 C 170,56 170,58 170,60 C 171.342,62.009 174.388,63.517 177,65 C 179.491,66.415 182.312,68.418 184,69 C 184.816,69.282 184.969,68.535 185,68 C 187.928,68.261 188.072,65.739 191,66 C 191,68 191,70 191,72 C 192.342,74.009 195.388,75.517 198,77 C 200.491,78.415 203.312,80.418 205,81 C 205.816,81.282 205.969,80.535 206,80 C 208.928,80.261 209.072,77.739 212,78 C 210.661,85.006 214.11,87.223 219,88 C 217.909,90.242 214.091,89.758 213,92 C 210.764,92.431 212.595,96.928 212,99 C 209.445,98.555 207.402,97.598 206,96 C 201.089,98.422 196.314,100.981 192,104 C 191.667,104 191.333,104 191,104 C 191,106.333 191,108.666 191,111 C 185.506,108.236 183.494,108.236 178,111 C 177.405,108.928 179.236,104.431 177,104 C 173.122,100.878 167.878,99.122 164,96 C 161.497,96.831 160.073,98.74 157,99 C 156.405,96.928 158.236,92.431 156,92 C 152.122,88.878 146.878,87.122 143,84 C 140.497,84.831 139.073,86.74 136,87 C 135.405,84.928 137.236,80.431 135,80 C 131.122,76.878 125.878,75.122 122,72 C 117.088,74.422 112.314,76.981 108,80 C 107.667,80 107.333,80 107,80 C 107,82.333 107,84.667 107,87 C 104.445,86.555 102.402,85.598 101,84 C 96.088,86.422 91.314,88.981 87,92 C 86.667,92 86.333,92 86,92 C 86,94.333 86,96.667 86,99 C 83.445,98.555 81.402,97.598 80,96 C 75.088,98.422 70.314,100.981 66,104 C 65.667,104 65.333,104 65,104 C 65,106.333 65,108.666 65,111 C 62.445,110.555 60.402,109.598 59,108 C 54.088,110.422 49.314,112.98 45,116 C 44.667,116 44.333,116 44,116 C 44,121.334 44,126.667 44,132 C 45.342,134.009 48.388,135.517 51,137 C 53.541,138.443 56.258,140.351 58,141 C 58.807,141.301 58.977,140.521 59,140 C 61.928,140.261 62.072,137.739 65,138 C 65,140 65,142 65,144 C 66.342,146.009 69.388,147.517 72,149 C 74.491,150.415 77.312,152.418 79,153 C 79.817,153.281 79.969,152.535 80,152 C 82.928,152.261 83.072,149.739 86,150 C 86,152 86,154 86,156 C 87.342,158.009 90.388,159.517 93,161 C 95.491,162.415 98.312,164.418 100,165 C 100.817,165.281 100.969,164.535 101,164 C 103.928,164.261 104.072,161.739 107,162 C 107,164 107,166 107,168 C 108.342,170.009 111.388,171.517 114,173 C 116.491,174.415 119.312,176.418 121,177 C 121.816,177.281 121.969,176.535 122,176 C 127.646,174.646 130.833,170.833 136,169 C 136,166.667 136,164.333 136,162 C 138.901,161.511 141.752,166.142 143,164 C 148.646,162.646 151.833,158.833 157,157 C 157,154.667 157,152.333 157,150 C 159.901,149.511 162.752,154.142 164,152 C 169.646,150.646 172.833,146.833 178,145 C 178,142.667 178,140.333 178,138 C 180.901,137.511 183.752,142.142 185,140 C 187.928,140.261 188.072,137.739 191,138 C 191,140 191,142 191,144 C 192.342,146.009 195.388,147.517 198,149 C 200.491,150.415 203.312,152.418 205,153 C 205.816,153.281 205.969,152.535 206,152 C 208.928,152.261 209.072,149.739 212,150 C 210.661,157.006 214.11,159.223 219,160 C 217.909,162.242 214.091,161.758 213,164 C 210.764,164.431 212.595,168.929 212,171 C 209.445,170.555 207.402,169.598 206,168 C 201.089,170.422 196.314,172.98 192,176 C 191.667,176 191.333,176 191,176 C 191,178.333 191,180.667 191,183 C 188.445,182.555 186.402,181.598 185,180 C 180.089,182.422 175.314,184.98 171,188 C 170.667,188 170.333,188 170,188 C 170,190.333 170,192.667 170,195 C 167.445,194.555 165.402,193.598 164,192 C 159.089,194.422 154.314,196.98 150,200 C 149.667,200 149.333,200 149,200 C 149,202.333 149,204.667 149,207 C 146.445,206.555 144.402,205.598 143,204 C 138.089,206.422 133.314,208.98 129,212 C 128.666,212 128.334,212 128,212 C 128,214.333 128,216.667 128,219 C 122.506,216.235 120.494,216.235 115,219 C 114.405,216.929 116.236,212.431 114,212 C 110.122,208.878 104.878,207.122 101,204 C 98.497,204.83 97.073,206.739 94,207 C 93.405,204.929 95.236,200.431 93,200 C 89.122,196.878 83.878,195.122 80,192 C 77.497,192.83 76.073,194.739 73,195 C 72.405,192.929 74.236,188.431 72,188 C 68.122,184.878 62.878,183.122 59,180 C 56.497,180.83 55.073,182.739 52,183 C 51.405,180.929 53.236,176.431 51,176 C 47.122,172.878 41.878,171.122 38,168 C 35.497,168.83 34.073,170.739 31,171 C 30.405,168.929 32.236,164.431 30,164 C 26.122,160.878 20.878,159.122 17,156 C 12.088,158.422 7.314,160.98 3,164 C 2.667,164 2.333,164 2,164 C 2,169.333 2,174.667 2,180 C 3.342,182.009 6.388,183.517 9,185 C 11.541,186.443 14.258,188.351 16,189 C 16.807,189.301 16.977,188.521 17,188 C 19.928,188.261 20.072,185.739 23,186 C 23,188 23,190 23,192 C 24.342,194.009 27.388,195.517 30,197 C 32.491,198.415 35.312,200.418 37,201 C 37.817,201.281 37.969,200.535 38,200 C 40.928,200.261 41.072,197.739 44,198 C 44,200 44,202 44,204 C 45.342,206.009 48.388,207.517 51,209 C 53.491,210.415 56.312,212.418 58,213 C 58.817,213.281 58.969,212.535 59,212 C 61.928,212.261 62.072,209.739 65,210 C 65,212 65,214 65,216 C 66.342,218.009 69.388,219.517 72,221 C 74.491,222.415 77.312,224.418 79,225 C 79.817,225.281 79.969,224.535 80,224 C 82.928,224.261 83.072,221.739 86,222 C 86,224 86,226 86,228 C 87.342,230.009 90.388,231.517 93,233 C 95.491,234.415 98.312,236.418 100,237 C 100.817,237.281 100.969,236.535 101,236 C 103.928,236.261 104.072,233.739 107,234 C 107,236 107,238 107,240 C 108.342,242.009 111.388,243.517 114,245 C 116.491,246.415 119.312,248.418 121,249 C 121.816,249.281 121.969,248.535 122,248 C 127.646,246.646 130.833,242.833 136,241 C 136,238.667 136,236.333 136,234 C 138.901,233.511 141.752,238.142 143,236 C 148.646,234.646 151.833,230.833 157,229 C 157,226.667 157,224.333 157,222 C 159.901,221.511 162.752,226.142 164,224 C 169.646,222.646 172.833,218.833 178,217 C 178,214.667 178,212.333 178,210 C 180.901,209.511 183.752,214.142 185,212 C 190.646,210.646 193.833,206.833 199,205 C 199,202.667 199,200.333 199,198 C 201.901,197.511 204.752,202.142 206,200 C 211.646,198.646 214.833,194.833 220,193 C 220,190.667 220,188.333 220,186 C 222.901,185.511 225.752,190.142 227,188 C 232.646,186.646 235.833,182.833 241,181 C 241,178.667 241,176.333 241,174 C 243.901,173.511 246.752,178.142 248,176 C 253.646,174.646 256.833,170.833 262,169 C 261.349,163.651 263.313,155.687 261,152 C 257.122,148.878 251.878,147.122 248,144 C 245.497,144.83 244.073,146.739 241,147 C 240.405,144.929 242.236,140.431 240,140 C 236.122,136.878 230.878,135.122 227,132 C 224.497,132.83 223.073,134.739 220,135 C 219.405,132.929 221.236,128.431 219,128 C 217.909,125.758 214.091,126.242 213,124 C 217.89,123.223 221.339,121.006 220,114 C 222.901,113.511 225.752,118.143 227,116 C 232.646,114.646 235.833,110.833 241,109 C 241,106.667 241,104.333 241,102 C 243.901,101.511 246.752,106.142 248,104 C 253.646,102.646 256.833,98.833 262,97 C 261.349,91.651 263.313,83.687 261,80 C 257.122,76.878 251.878,75.122 248,72 C 245.497,72.831 244.073,74.74 241,75 C 240.405,72.928 242.236,68.431 240,68 C 236.122,64.878 230.878,63.122 227,60 C 224.497,60.831 223.073,62.74 220,63 C 219.405,60.928 221.236,56.431 219,56 C 215.122,52.878 209.878,51.122 206,48 C 203.497,48.831 202.073,50.74 199,51 C 198.405,48.928 200.236,44.431 198,44 C 194.122,40.878 188.878,39.122 185,36 C 182.497,36.831 181.073,38.74 178,39 C 177.405,36.928 179.236,32.431 177,32 C 173.122,28.878 167.878,27.122 164,24 C 161.497,24.831 160.073,26.74 157,27 C 156.405,24.928 158.236,20.431 156,20 C 152.122,16.878 146.878,15.122 143,12 C 140.497,12.831 139.073,14.74 136,15 C 135.405,12.928 137.236,8.431 135,8 C 131.122,4.878 125.878,3.122 122,0 C 170.666,0 219.334,0 268,0 C 268,83.333 268,166.666 268,250 C 178.666,250 89.334,250 0,250 C 0,166.666 0,83.334 0,0 C 40.333,0 80.667,0 121,0 z"
   id="path7"
   style="fill:#ffffff;fill-rule:evenodd" />
		<path
   d="M 121,0 C 121.334,0 121.666,0 122,0 C 125.878,3.122 131.122,4.878 135,8 C 131.122,11.122 125.878,12.878 122,16 C 117.088,13.578 112.314,11.019 108,8 C 111.878,4.878 117.122,3.122 121,0 z"
   id="path9"
   style="fill:#ffc000;fill-rule:evenodd" />
		<path
   d="M 108,8 C 112.314,11.019 117.088,13.578 122,16 C 122,21.333 122,26.667 122,32 C 120.752,34.142 117.901,29.511 115,30 C 114.373,26.96 116.28,21.387 114,20 C 112.543,17.457 107.937,18.063 107,15 C 107,12.667 107,10.333 107,8 C 107.333,8 107.667,8 108,8 z"
   id="path11"
   style="fill:#91a7d4;fill-rule:evenodd" />
		<path
   d="M 135,8 C 137.236,8.431 135.405,12.928 136,15 C 136,15.333 136,15.667 136,16 C 133.812,17.479 130.617,17.95 129,20 C 128.666,20 128.334,20 128,20 C 128,23.333 128,26.667 128,30 C 125.072,29.739 124.928,32.261 122,32 C 122,26.667 122,21.333 122,16 C 125.878,12.878 131.122,11.122 135,8 z"
   id="path13"
   style="fill:#f7f8fa;fill-rule:evenodd" />
		<path
   d="M 107,15 C 107.937,18.063 112.543,17.457 114,20 C 110.122,23.122 104.878,24.878 101,28 C 96.088,25.578 91.314,23.019 87,20 C 91.314,16.981 96.088,14.422 101,12 C 102.402,13.598 104.445,14.555 107,15 z"
   id="path15"
   style="fill:#ffc000;fill-rule:evenodd" />
		<path
   d="M 156,20 C 152.122,23.122 146.878,24.878 143,28 C 138.089,25.578 133.314,23.019 129,20 C 130.617,17.95 133.813,17.479 136,16 C 136,15.667 136,15.333 136,15 C 139.073,14.74 140.497,12.831 143,12 C 146.878,15.122 152.122,16.878 156,20 z"
   id="path17"
   style="fill:#ffc000;fill-rule:evenodd" />
		<path
   d="M 87,20 C 91.314,23.019 96.088,25.578 101,28 C 101,33.333 101,38.667 101,44 C 99.752,46.142 96.901,41.511 94,42 C 93.373,38.96 95.28,33.387 93,32 C 91.543,29.457 86.937,30.063 86,27 C 86,24.667 86,22.333 86,20 C 86.333,20 86.667,20 87,20 z"
   id="path19"
   style="fill:#91a7d4;fill-rule:evenodd" />
		<path
   d="M 114,20 C 116.28,21.387 114.373,26.96 115,30 C 115,32.333 115,34.667 115,37 C 109.833,38.833 106.646,42.646 101,44 C 101,38.667 101,33.333 101,28 C 104.878,24.878 110.122,23.122 114,20 z"
   id="path21"
   style="fill:#f7f8fa;fill-rule:evenodd" />
		<path
   d="M 129,20 C 133.314,23.019 138.089,25.578 143,28 C 143,33.333 143,38.667 143,44 C 142.969,44.535 142.816,45.282 142,45 C 140.312,44.417 137.491,42.415 135,41 C 132.389,39.517 129.342,38.009 128,36 C 128,34 128,32 128,30 C 128,26.667 128,23.333 128,20 C 128.334,20 128.666,20 129,20 z"
   id="path23"
   style="fill:#91a7d4;fill-rule:evenodd" />
		<path
   d="M 156,20 C 158.236,20.431 156.405,24.928 157,27 C 157,27.333 157,27.667 157,28 C 154.812,29.479 151.617,29.95 150,32 C 149.667,32 149.333,32 149,32 C 149,35.333 149,38.667 149,42 C 146.072,41.739 145.928,44.261 143,44 C 143,38.667 143,33.333 143,28 C 146.878,24.878 152.122,23.122 156,20 z"
   id="path25"
   style="fill:#f7f8fa;fill-rule:evenodd" />
		<path
   d="M 86,27 C 86.937,30.063 91.543,29.457 93,32 C 89.122,35.122 83.878,36.878 80,40 C 75.088,37.578 70.314,35.019 66,32 C 70.314,28.981 75.088,26.422 80,24 C 81.402,25.598 83.445,26.555 86,27 z"
   id="path27"
   style="fill:#ffc000;fill-rule:evenodd" />
		<path
   d="M 177,32 C 173.122,35.122 167.878,36.878 164,40 C 159.089,37.578 154.314,35.019 150,32 C 151.617,29.95 154.813,29.479 157,28 C 157,27.667 157,27.333 157,27 C 160.073,26.74 161.497,24.831 164,24 C 167.878,27.122 173.122,28.878 177,32 z"
   id="path29"
   style="fill:#ffc000;fill-rule:evenodd" />
		<path
   d="M 66,32 C 70.314,35.019 75.088,37.578 80,40 C 80,45.333 80,50.667 80,56 C 78.752,58.142 75.901,53.511 73,54 C 72.373,50.96 74.28,45.387 72,44 C 70.543,41.457 65.937,42.063 65,39 C 65,36.667 65,34.333 65,32 C 65.333,32 65.667,32 66,32 z"
   id="path31"
   style="fill:#91a7d4;fill-rule:evenodd" />
		<path
   d="M 93,32 C 95.28,33.387 93.373,38.96 94,42 C 94,44.333 94,46.667 94,49 C 88.833,50.833 85.646,54.646 80,56 C 80,50.667 80,45.333 80,40 C 83.878,36.878 89.122,35.122 93,32 z"
   id="path33"
   style="fill:#f7f8fa;fill-rule:evenodd" />
		<path
   d="M 150,32 C 154.314,35.019 159.089,37.578 164,40 C 164,45.333 164,50.667 164,56 C 163.969,56.535 163.816,57.282 163,57 C 161.312,56.418 158.491,54.415 156,53 C 153.388,51.517 150.342,50.009 149,48 C 149,46 149,44 149,42 C 149,38.667 149,35.333 149,32 C 149.333,32 149.667,32 150,32 z"
   id="path35"
   style="fill:#91a7d4;fill-rule:evenodd" />
		<path
   d="M 177,32 C 179.236,32.431 177.405,36.928 178,39 C 178,39.333 178,39.667 178,40 C 175.812,41.479 172.617,41.95 171,44 C 170.667,44 170.333,44 170,44 C 170,47.333 170,50.667 170,54 C 167.072,53.739 166.928,56.261 164,56 C 164,50.667 164,45.333 164,40 C 167.878,36.878 173.122,35.122 177,32 z"
   id="path37"
   style="fill:#f7f8fa;fill-rule:evenodd" />
		<path
   d="M 65,39 C 65.937,42.063 70.543,41.457 72,44 C 68.122,47.122 62.878,48.878 59,52 C 54.088,49.578 49.314,47.019 45,44 C 49.314,40.981 54.088,38.422 59,36 C 60.402,37.598 62.445,38.555 65,39 z"
   id="path39"
   style="fill:#ffc000;fill-rule:evenodd" />
		<path
   d="M 198,44 C 194.122,47.122 188.878,48.878 185,52 C 180.089,49.578 175.314,47.019 171,44 C 172.617,41.95 175.813,41.479 178,40 C 178,39.667 178,39.333 178,39 C 181.073,38.74 182.497,36.831 185,36 C 188.878,39.122 194.122,40.878 198,44 z"
   id="path41"
   style="fill:#ffc000;fill-rule:evenodd" />
		<path
   d="M 45,44 C 49.314,47.019 54.088,49.578 59,52 C 59,57.333 59,62.667 59,68 C 57.752,70.142 54.901,65.511 52,66 C 51.373,62.96 53.28,57.387 51,56 C 49.543,53.457 44.937,54.063 44,51 C 44,48.667 44,46.333 44,44 C 44.333,44 44.667,44 45,44 z"
   id="path43"
   style="fill:#91a7d4;fill-rule:evenodd" />
		<path
   d="M 72,44 C 74.28,45.387 72.373,50.96 73,54 C 73,56.333 73,58.667 73,61 C 67.833,62.833 64.646,66.646 59,68 C 59,62.667 59,57.333 59,52 C 62.878,48.878 68.122,47.122 72,44 z"
   id="path45"
   style="fill:#f7f8fa;fill-rule:evenodd" />
		<path
   d="M 171,44 C 175.314,47.019 180.089,49.578 185,52 C 185,57.333 185,62.667 185,68 C 184.969,68.535 184.816,69.282 184,69 C 182.312,68.418 179.491,66.415 177,65 C 174.388,63.517 171.342,62.009 170,60 C 170,58 170,56 170,54 C 170,50.667 170,47.333 170,44 C 170.333,44 170.667,44 171,44 z"
   id="path47"
   style="fill:#91a7d4;fill-rule:evenodd" />
		<path
   d="M 198,44 C 200.236,44.431 198.405,48.928 199,51 C 199,51.333 199,51.667 199,52 C 196.812,53.479 193.617,53.95 192,56 C 191.667,56 191.333,56 191,56 C 191,59.333 191,62.667 191,66 C 188.072,65.739 187.928,68.261 185,68 C 185,62.667 185,57.333 185,52 C 188.878,48.878 194.122,47.122 198,44 z"
   id="path49"
   style="fill:#f7f8fa;fill-rule:evenodd" />
		<path
   d="M 44,51 C 44.937,54.063 49.543,53.457 51,56 C 47.122,59.122 41.878,60.878 38,64 C 33.088,61.578 28.314,59.019 24,56 C 28.314,52.981 33.088,50.422 38,48 C 39.402,49.598 41.445,50.555 44,51 z"
   id="path51"
   style="fill:#ffc000;fill-rule:evenodd" />
		<path
   d="M 219,56 C 215.122,59.122 209.878,60.878 206,64 C 201.089,61.578 196.314,59.019 192,56 C 193.617,53.95 196.813,53.479 199,52 C 199,51.667 199,51.333 199,51 C 202.073,50.74 203.497,48.831 206,48 C 209.878,51.122 215.122,52.878 219,56 z"
   id="path53"
   style="fill:#ffc000;fill-rule:evenodd" />
		<path
   d="M 24,56 C 28.314,59.019 33.088,61.578 38,64 C 38,69.333 38,74.667 38,80 C 36.752,82.142 33.901,77.511 31,78 C 30.373,74.96 32.28,69.387 30,68 C 28.543,65.457 23.937,66.063 23,63 C 23,60.667 23,58.333 23,56 C 23.333,56 23.667,56 24,56 z"
   id="path55"
   style="fill:#91a7d4;fill-rule:evenodd" />
		<path
   d="M 51,56 C 53.28,57.387 51.373,62.96 52,66 C 52,68.333 52,70.667 52,73 C 46.833,74.833 43.646,78.646 38,80 C 38,74.667 38,69.333 38,64 C 41.878,60.878 47.122,59.122 51,56 z"
   id="path57"
   style="fill:#f7f8fa;fill-rule:evenodd" />
		<path
   d="M 192,56 C 196.314,59.019 201.089,61.578 206,64 C 206,69.333 206,74.667 206,80 C 205.969,80.535 205.816,81.282 205,81 C 203.312,80.418 200.491,78.415 198,77 C 195.388,75.517 192.342,74.009 191,72 C 191,70 191,68 191,66 C 191,62.667 191,59.333 191,56 C 191.333,56 191.667,56 192,56 z"
   id="path59"
   style="fill:#91a7d4;fill-rule:evenodd" />
		<path
   d="M 219,56 C 221.236,56.431 219.405,60.928 220,63 C 220,63.333 220,63.667 220,64 C 217.812,65.479 214.617,65.95 213,68 C 212.667,68 212.333,68 212,68 C 212,71.333 212,74.667 212,78 C 209.072,77.739 208.928,80.261 206,80 C 206,74.667 206,69.333 206,64 C 209.878,60.878 215.122,59.122 219,56 z"
   id="path61"
   style="fill:#f7f8fa;fill-rule:evenodd" />
		<path
   d="M 23,63 C 23.937,66.063 28.543,65.457 30,68 C 26.122,71.122 20.878,72.878 17,76 C 12.088,73.578 7.314,71.019 3,68 C 7.314,64.981 12.088,62.422 17,60 C 18.402,61.598 20.445,62.555 23,63 z"
   id="path63"
   style="fill:#ffc000;fill-rule:evenodd" />
		<path
   d="M 240,68 C 236.122,71.122 230.878,72.878 227,76 C 222.089,73.578 217.314,71.019 213,68 C 214.617,65.95 217.813,65.479 220,64 C 220,63.667 220,63.333 220,63 C 223.073,62.74 224.497,60.831 227,60 C 230.878,63.122 236.122,64.878 240,68 z"
   id="path65"
   style="fill:#ffc000;fill-rule:evenodd" />
		<path
   d="M 3,68 C 7.314,71.019 12.088,73.578 17,76 C 17,81.333 17,86.667 17,92 C 16.977,92.521 16.807,93.301 16,93 C 14.258,92.351 11.541,90.443 9,89 C 6.388,87.517 3.342,86.009 2,84 C 2,78.667 2,73.333 2,68 C 2.333,68 2.667,68 3,68 z"
   id="path67"
   style="fill:#91a7d4;fill-rule:evenodd" />
		<path
   d="M 30,68 C 32.28,69.387 30.373,74.96 31,78 C 31,80.333 31,82.667 31,85 C 25.833,86.833 22.646,90.646 17,92 C 17,86.667 17,81.333 17,76 C 20.878,72.878 26.122,71.122 30,68 z"
   id="path69"
   style="fill:#f7f8fa;fill-rule:evenodd" />
		<path
   d="M 213,68 C 217.314,71.019 222.089,73.578 227,76 C 227,78.667 227,81.333 227,84 C 224.315,85.315 221.685,86.685 219,88 C 214.11,87.223 210.661,85.006 212,78 C 212,74.667 212,71.333 212,68 C 212.333,68 212.667,68 213,68 z"
   id="path71"
   style="fill:#91a7d4;fill-rule:evenodd" />
		<path
   d="M 240,68 C 242.236,68.431 240.405,72.928 241,75 C 241,75.333 241,75.667 241,76 C 238.812,77.479 235.617,77.95 234,80 C 233.667,80 233.333,80 233,80 C 233,82.333 233,84.667 233,87 C 230.445,86.555 228.402,85.598 227,84 C 227,81.333 227,78.667 227,76 C 230.878,72.878 236.122,71.122 240,68 z"
   id="path73"
   style="fill:#f7f8fa;fill-rule:evenodd" />
		<path
   d="M 135,80 C 131.122,83.122 125.878,84.878 122,88 C 117.088,85.578 112.314,83.019 108,80 C 112.314,76.981 117.088,74.422 122,72 C 125.878,75.122 131.122,76.878 135,80 z"
   id="path75"
   style="fill:#ffc000;fill-rule:evenodd" />
		<path
   d="M 261,80 C 257.122,83.122 251.878,84.878 248,88 C 243.089,85.578 238.314,83.019 234,80 C 235.617,77.95 238.813,77.479 241,76 C 241,75.667 241,75.333 241,75 C 244.073,74.74 245.497,72.831 248,72 C 251.878,75.122 257.122,76.878 261,80 z"
   id="path77"
   style="fill:#ffc000;fill-rule:evenodd" />
		<path
   d="M 108,80 C 112.314,83.019 117.088,85.578 122,88 C 122,93.333 122,98.667 122,104 C 120.752,106.142 117.901,101.511 115,102 C 114.373,98.96 116.28,93.387 114,92 C 112.543,89.457 107.937,90.063 107,87 C 107,84.667 107,82.333 107,80 C 107.333,80 107.667,80 108,80 z"
   id="path79"
   style="fill:#91a7d4;fill-rule:evenodd" />
		<path
   d="M 135,80 C 137.236,80.431 135.405,84.928 136,87 C 136,87.333 136,87.667 136,88 C 133.812,89.479 130.617,89.95 129,92 C 128.666,92 128.334,92 128,92 C 128,95.333 128,98.667 128,102 C 125.072,101.739 124.928,104.261 122,104 C 122,98.667 122,93.333 122,88 C 125.878,84.878 131.122,83.122 135,80 z"
   id="path81"
   style="fill:#f7f8fa;fill-rule:evenodd" />
		<path
   d="M 234,80 C 238.314,83.019 243.089,85.578 248,88 C 248,93.333 248,98.667 248,104 C 246.752,106.142 243.901,101.511 241,102 C 240.373,98.96 242.28,93.387 240,92 C 238.543,89.457 233.937,90.063 233,87 C 233,84.667 233,82.333 233,80 C 233.333,80 233.667,80 234,80 z"
   id="path83"
   style="fill:#91a7d4;fill-rule:evenodd" />
		<path
   d="M 261,80 C 263.313,83.687 261.349,91.651 262,97 C 256.833,98.833 253.646,102.646 248,104 C 248,98.667 248,93.333 248,88 C 251.878,84.878 257.122,83.122 261,80 z"
   id="path85"
   style="fill:#f7f8fa;fill-rule:evenodd" />
		<path
   d="M 107,87 C 107.937,90.063 112.543,89.457 114,92 C 110.122,95.122 104.878,96.878 101,100 C 96.088,97.578 91.314,95.019 87,92 C 91.314,88.981 96.088,86.422 101,84 C 102.402,85.598 104.445,86.555 107,87 z"
   id="path87"
   style="fill:#ffc000;fill-rule:evenodd" />
		<path
   d="M 156,92 C 152.122,95.122 146.878,96.878 143,100 C 138.089,97.578 133.314,95.019 129,92 C 130.617,89.95 133.813,89.479 136,88 C 136,87.667 136,87.333 136,87 C 139.073,86.74 140.497,84.831 143,84 C 146.878,87.122 152.122,88.878 156,92 z"
   id="path89"
   style="fill:#ffc000;fill-rule:evenodd" />
		<path
   d="M 227,84 C 228.402,85.598 230.445,86.555 233,87 C 233.937,90.063 238.543,89.457 240,92 C 236.122,95.122 230.878,96.878 227,100 C 222.089,97.578 217.314,95.019 213,92 C 214.091,89.758 217.909,90.242 219,88 C 221.685,86.685 224.315,85.315 227,84 z"
   id="path91"
   style="fill:#ffc000;fill-rule:evenodd" />
		<path
   d="M 87,92 C 91.314,95.019 96.088,97.578 101,100 C 101,105.333 101,110.666 101,116 C 99.752,118.143 96.901,113.511 94,114 C 93.373,110.961 95.28,105.387 93,104 C 91.543,101.457 86.937,102.063 86,99 C 86,96.667 86,94.333 86,92 C 86.333,92 86.667,92 87,92 z"
   id="path93"
   style="fill:#91a7d4;fill-rule:evenodd" />
		<path
   d="M 114,92 C 116.28,93.387 114.373,98.96 115,102 C 115,104.333 115,106.667 115,109 C 109.833,110.833 106.646,114.646 101,116 C 101,110.666 101,105.333 101,100 C 104.878,96.878 110.122,95.122 114,92 z"
   id="path95"
   style="fill:#f7f8fa;fill-rule:evenodd" />
		<path
   d="M 129,92 C 133.314,95.019 138.089,97.578 143,100 C 143,105.333 143,110.666 143,116 C 138.947,116.697 133.123,110.561 128,109 C 128,106.667 128,104.333 128,102 C 128,98.667 128,95.333 128,92 C 128.334,92 128.666,92 129,92 z"
   id="path97"
   style="fill:#91a7d4;fill-rule:evenodd" />
		<path
   d="M 156,92 C 158.236,92.431 156.405,96.928 157,99 C 157,99.333 157,99.667 157,100 C 154.812,101.479 151.617,101.95 150,104 C 149.667,104 149.333,104 149,104 C 149,107.334 149,110.666 149,114 C 146.072,113.739 145.928,116.261 143,116 C 143,110.666 143,105.333 143,100 C 146.878,96.878 152.122,95.122 156,92 z"
   id="path99"
   style="fill:#f7f8fa;fill-rule:evenodd" />
		<path
   d="M 213,92 C 217.314,95.019 222.089,97.578 227,100 C 227,105.333 227,110.666 227,116 C 225.752,118.143 222.901,113.511 220,114 C 219.373,110.961 221.28,105.387 219,104 C 217.543,101.457 212.937,102.063 212,99 C 212.595,96.928 210.764,92.431 213,92 z"
   id="path101"
   style="fill:#91a7d4;fill-rule:evenodd" />
		<path
   d="M 240,92 C 242.28,93.387 240.373,98.96 241,102 C 241,104.333 241,106.667 241,109 C 235.833,110.833 232.646,114.646 227,116 C 227,110.666 227,105.333 227,100 C 230.878,96.878 236.122,95.122 240,92 z"
   id="path103"
   style="fill:#f7f8fa;fill-rule:evenodd" />
		<path
   d="M 86,99 C 86.937,102.063 91.543,101.457 93,104 C 89.122,107.122 83.878,108.878 80,112 C 75.088,109.578 70.314,107.02 66,104 C 70.314,100.981 75.088,98.422 80,96 C 81.402,97.598 83.445,98.555 86,99 z"
   id="path105"
   style="fill:#ffc000;fill-rule:evenodd" />
		<path
   d="M 177,104 C 173.122,107.122 167.878,108.878 164,112 C 159.089,109.578 154.314,107.02 150,104 C 151.617,101.95 154.813,101.479 157,100 C 157,99.667 157,99.333 157,99 C 160.073,98.74 161.497,96.831 164,96 C 167.878,99.122 173.122,100.878 177,104 z"
   id="path107"
   style="fill:#ffc000;fill-rule:evenodd" />
		<path
   d="M 212,99 C 212.937,102.063 217.543,101.457 219,104 C 215.122,107.122 209.878,108.878 206,112 C 201.089,109.578 196.314,107.02 192,104 C 196.314,100.981 201.089,98.422 206,96 C 207.402,97.598 209.445,98.555 212,99 z"
   id="path109"
   style="fill:#ffc000;fill-rule:evenodd" />
		<path
   d="M 115,102 C 117.901,101.511 120.752,106.142 122,104 C 124.928,104.261 125.072,101.739 128,102 C 128,104.333 128,106.667 128,109 C 133.123,110.561 138.947,116.697 143,116 C 145.928,116.261 146.072,113.739 149,114 C 147.661,121.006 151.11,123.223 156,124 C 154.909,126.242 151.091,125.758 150,128 C 149.667,128 149.333,128 149,128 C 149,130.333 149,132.667 149,135 C 146.445,134.555 144.402,133.598 143,132 C 138.089,134.422 133.314,136.98 129,140 C 128.666,140 128.334,140 128,140 C 128,142.333 128,144.667 128,147 C 122.506,144.235 120.494,144.235 115,147 C 114.405,144.929 116.236,140.431 114,140 C 110.122,136.878 104.878,135.122 101,132 C 98.497,132.83 97.073,134.739 94,135 C 93.405,132.929 95.236,128.431 93,128 C 91.909,125.758 88.091,126.242 87,124 C 90.073,123.74 91.497,121.83 94,121 C 94,118.666 94,116.334 94,114 C 96.901,113.511 99.752,118.143 101,116 C 106.646,114.646 109.833,110.833 115,109 C 115,106.667 115,104.333 115,102 z"
   id="path111"
   style="fill:#ffffff;fill-rule:evenodd" />
		<path
   d="M 66,104 C 70.314,107.02 75.088,109.578 80,112 C 80,114.666 80,117.334 80,120 C 77.497,120.83 76.073,122.74 73,123 C 72.405,120.928 74.236,116.431 72,116 C 70.543,113.457 65.937,114.063 65,111 C 65,108.666 65,106.333 65,104 C 65.333,104 65.667,104 66,104 z"
   id="path113"
   style="fill:#91a7d4;fill-rule:evenodd" />
		<path
   d="M 93,104 C 95.28,105.387 93.373,110.961 94,114 C 94,116.334 94,118.666 94,121 C 91.497,121.83 90.073,123.74 87,124 C 84.812,122.521 81.617,122.05 80,120 C 80,117.334 80,114.666 80,112 C 83.878,108.878 89.122,107.122 93,104 z"
   id="path115"
   style="fill:#f7f8fa;fill-rule:evenodd" />
		<path
   d="M 150,104 C 154.314,107.02 159.089,109.578 164,112 C 164,114.666 164,117.334 164,120 C 161.315,121.315 158.685,122.685 156,124 C 151.11,123.223 147.661,121.006 149,114 C 149,110.666 149,107.334 149,104 C 149.333,104 149.667,104 150,104 z"
   id="path117"
   style="fill:#91a7d4;fill-rule:evenodd" />
		<path
   d="M 177,104 C 179.236,104.431 177.405,108.928 178,111 C 178,111.334 178,111.666 178,112 C 175.812,113.479 172.617,113.95 171,116 C 170.667,116 170.333,116 170,116 C 170,118.334 170,120.666 170,123 C 167.445,122.555 165.402,121.598 164,120 C 164,117.334 164,114.666 164,112 C 167.878,108.878 173.122,107.122 177,104 z"
   id="path119"
   style="fill:#f7f8fa;fill-rule:evenodd" />
		<path
   d="M 192,104 C 196.314,107.02 201.089,109.578 206,112 C 206,117 206,122 206,127 C 205.063,128.514 200.457,125.276 199,124 C 198.391,121.609 200.255,116.744 198,116 C 196.543,113.457 191.937,114.063 191,111 C 191,108.666 191,106.333 191,104 C 191.333,104 191.667,104 192,104 z"
   id="path121"
   style="fill:#91a7d4;fill-rule:evenodd" />
		<path
   d="M 219,104 C 221.28,105.387 219.373,110.961 220,114 C 221.339,121.006 217.89,123.223 213,124 C 210.497,124.83 209.073,126.739 206,127 C 206,122 206,117 206,112 C 209.878,108.878 215.122,107.122 219,104 z"
   id="path123"
   style="fill:#f7f8fa;fill-rule:evenodd" />
		<path
   d="M 65,111 C 65.937,114.063 70.543,113.457 72,116 C 68.122,119.122 62.878,120.878 59,124 C 54.088,121.578 49.314,119.02 45,116 C 49.314,112.98 54.088,110.422 59,108 C 60.402,109.598 62.445,110.555 65,111 z"
   id="path125"
   style="fill:#ffc000;fill-rule:evenodd" />
		<path
   d="M 191,111 C 191.937,114.063 196.543,113.457 198,116 C 194.122,119.122 188.878,120.878 185,124 C 180.089,121.578 175.314,119.02 171,116 C 172.617,113.95 175.813,113.479 178,112 C 178,111.666 178,111.334 178,111 C 183.494,108.236 185.506,108.236 191,111 z"
   id="path127"
   style="fill:#ffc000;fill-rule:evenodd" />
		<path
   d="M 45,116 C 49.314,119.02 54.088,121.578 59,124 C 59,129.333 59,134.667 59,140 C 58.977,140.521 58.807,141.301 58,141 C 56.258,140.351 53.541,138.443 51,137 C 48.388,135.517 45.342,134.009 44,132 C 44,126.667 44,121.334 44,116 C 44.333,116 44.667,116 45,116 z"
   id="path129"
   style="fill:#91a7d4;fill-rule:evenodd" />
		<path
   d="M 72,116 C 74.236,116.431 72.405,120.928 73,123 C 73,123.334 73,123.666 73,124 C 70.812,125.479 67.617,125.95 66,128 C 65.667,128 65.333,128 65,128 C 65,131.333 65,134.667 65,138 C 62.072,137.739 61.928,140.261 59,140 C 59,134.667 59,129.333 59,124 C 62.878,120.878 68.122,119.122 72,116 z"
   id="path131"
   style="fill:#f7f8fa;fill-rule:evenodd" />
		<path
   d="M 171,116 C 175.314,119.02 180.089,121.578 185,124 C 185,129.333 185,134.667 185,140 C 183.752,142.142 180.901,137.511 178,138 C 177.373,134.961 179.28,129.387 177,128 C 175.543,125.457 170.937,126.063 170,123 C 170,120.666 170,118.334 170,116 C 170.333,116 170.667,116 171,116 z"
   id="path133"
   style="fill:#91a7d4;fill-rule:evenodd" />
		<path
   d="M 198,116 C 200.255,116.744 198.391,121.609 199,124 C 196.745,124.744 198.609,129.609 198,132 C 198,132.333 198,132.667 198,133 C 195.101,134.101 191.237,134.237 191,138 C 188.072,137.739 187.928,140.261 185,140 C 185,134.667 185,129.333 185,124 C 188.878,120.878 194.122,119.122 198,116 z"
   id="path135"
   style="fill:#f7f8fa;fill-rule:evenodd" />
		<path
   d="M 80,120 C 81.617,122.05 84.812,122.521 87,124 C 88.091,126.242 91.909,125.758 93,128 C 89.122,131.122 83.878,132.878 80,136 C 75.088,133.578 70.314,131.02 66,128 C 67.617,125.95 70.812,125.479 73,124 C 73,123.666 73,123.334 73,123 C 76.073,122.74 77.497,120.83 80,120 z"
   id="path137"
   style="fill:#ffc000;fill-rule:evenodd" />
		<path
   d="M 164,120 C 165.402,121.598 167.445,122.555 170,123 C 170.937,126.063 175.543,125.457 177,128 C 173.122,131.122 167.878,132.878 164,136 C 159.089,133.578 154.314,131.02 150,128 C 151.091,125.758 154.909,126.242 156,124 C 158.685,122.685 161.315,121.315 164,120 z"
   id="path139"
   style="fill:#ffc000;fill-rule:evenodd" />
		<path
   d="M 199,124 C 200.457,125.276 205.063,128.514 206,127 C 209.073,126.739 210.497,124.83 213,124 C 214.091,126.242 217.909,125.758 219,128 C 215.122,131.122 209.878,132.878 206,136 C 203.315,134.685 200.685,133.315 198,132 C 198.609,129.609 196.745,124.744 199,124 z"
   id="path141"
   style="fill:#ffc000;fill-rule:evenodd" />
		<path
   d="M 66,128 C 70.314,131.02 75.088,133.578 80,136 C 80,141.333 80,146.667 80,152 C 79.969,152.535 79.817,153.281 79,153 C 77.312,152.418 74.491,150.415 72,149 C 69.388,147.517 66.342,146.009 65,144 C 65,142 65,140 65,138 C 65,134.667 65,131.333 65,128 C 65.333,128 65.667,128 66,128 z"
   id="path143"
   style="fill:#91a7d4;fill-rule:evenodd" />
		<path
   d="M 93,128 C 95.236,128.431 93.405,132.929 94,135 C 94,135.333 94,135.667 94,136 C 91.812,137.479 88.617,137.95 87,140 C 86.667,140 86.333,140 86,140 C 86,143.333 86,146.667 86,150 C 83.072,149.739 82.928,152.261 80,152 C 80,146.667 80,141.333 80,136 C 83.878,132.878 89.122,131.122 93,128 z"
   id="path145"
   style="fill:#f7f8fa;fill-rule:evenodd" />
		<path
   d="M 150,128 C 154.314,131.02 159.089,133.578 164,136 C 164,141.333 164,146.667 164,152 C 162.752,154.142 159.901,149.511 157,150 C 156.373,146.961 158.28,141.387 156,140 C 154.543,137.457 149.937,138.063 149,135 C 149,132.667 149,130.333 149,128 C 149.333,128 149.667,128 150,128 z"
   id="path147"
   style="fill:#91a7d4;fill-rule:evenodd" />
		<path
   d="M 177,128 C 179.28,129.387 177.373,134.961 178,138 C 178,140.333 178,142.667 178,145 C 172.833,146.833 169.646,150.646 164,152 C 164,146.667 164,141.333 164,136 C 167.878,132.878 173.122,131.122 177,128 z"
   id="path149"
   style="fill:#f7f8fa;fill-rule:evenodd" />
		<path
   d="M 219,128 C 221.236,128.431 219.405,132.929 220,135 C 220,135.333 220,135.667 220,136 C 217.812,137.479 214.617,137.95 213,140 C 212.667,140 212.333,140 212,140 C 212,143.333 212,146.667 212,150 C 209.072,149.739 208.928,152.261 206,152 C 206,146.667 206,141.333 206,136 C 209.878,132.878 215.122,131.122 219,128 z"
   id="path151"
   style="fill:#f7f8fa;fill-rule:evenodd" />
		<path
   d="M 114,140 C 110.122,143.122 104.878,144.878 101,148 C 96.088,145.578 91.314,143.02 87,140 C 88.617,137.95 91.812,137.479 94,136 C 94,135.667 94,135.333 94,135 C 97.073,134.739 98.497,132.83 101,132 C 104.878,135.122 110.122,136.878 114,140 z"
   id="path153"
   style="fill:#ffc000;fill-rule:evenodd" />
		<path
   d="M 149,135 C 149.937,138.063 154.543,137.457 156,140 C 152.122,143.122 146.878,144.878 143,148 C 138.089,145.578 133.314,143.02 129,140 C 133.314,136.98 138.089,134.422 143,132 C 144.402,133.598 146.445,134.555 149,135 z"
   id="path155"
   style="fill:#ffc000;fill-rule:evenodd" />
		<path
   d="M 198,132 C 200.685,133.315 203.315,134.685 206,136 C 206,141.333 206,146.667 206,152 C 205.969,152.535 205.816,153.281 205,153 C 203.312,152.418 200.491,150.415 198,149 C 195.388,147.517 192.342,146.009 191,144 C 191,142 191,140 191,138 C 191.237,134.237 195.101,134.101 198,133 C 198,132.667 198,132.333 198,132 z"
   id="path157"
   style="fill:#91a7d4;fill-rule:evenodd" />
		<path
   d="M 240,140 C 236.122,143.122 230.878,144.878 227,148 C 222.089,145.578 217.314,143.02 213,140 C 214.617,137.95 217.813,137.479 220,136 C 220,135.667 220,135.333 220,135 C 223.073,134.739 224.497,132.83 227,132 C 230.878,135.122 236.122,136.878 240,140 z"
   id="path159"
   style="fill:#ffc000;fill-rule:evenodd" />
		<path
   d="M 87,140 C 91.314,143.02 96.088,145.578 101,148 C 101,153.333 101,158.667 101,164 C 100.969,164.535 100.817,165.281 100,165 C 98.312,164.418 95.491,162.415 93,161 C 90.388,159.517 87.342,158.009 86,156 C 86,154 86,152 86,150 C 86,146.667 86,143.333 86,140 C 86.333,140 86.667,140 87,140 z"
   id="path161"
   style="fill:#91a7d4;fill-rule:evenodd" />
		<path
   d="M 114,140 C 116.236,140.431 114.405,144.929 115,147 C 115,147.333 115,147.667 115,148 C 112.812,149.479 109.617,149.95 108,152 C 107.667,152 107.333,152 107,152 C 107,155.333 107,158.667 107,162 C 104.072,161.739 103.928,164.261 101,164 C 101,158.667 101,153.333 101,148 C 104.878,144.878 110.122,143.122 114,140 z"
   id="path163"
   style="fill:#f7f8fa;fill-rule:evenodd" />
		<path
   d="M 129,140 C 133.314,143.02 138.089,145.578 143,148 C 143,153.333 143,158.667 143,164 C 141.752,166.142 138.901,161.511 136,162 C 135.373,158.961 137.28,153.387 135,152 C 133.543,149.457 128.937,150.063 128,147 C 128,144.667 128,142.333 128,140 C 128.334,140 128.666,140 129,140 z"
   id="path165"
   style="fill:#91a7d4;fill-rule:evenodd" />
		<path
   d="M 156,140 C 158.28,141.387 156.373,146.961 157,150 C 157,152.333 157,154.667 157,157 C 151.833,158.833 148.646,162.646 143,164 C 143,158.667 143,153.333 143,148 C 146.878,144.878 152.122,143.122 156,140 z"
   id="path167"
   style="fill:#f7f8fa;fill-rule:evenodd" />
		<path
   d="M 213,140 C 217.314,143.02 222.089,145.578 227,148 C 227,150.667 227,153.333 227,156 C 224.315,157.315 221.685,158.685 219,160 C 214.11,159.223 210.661,157.006 212,150 C 212,146.667 212,143.333 212,140 C 212.333,140 212.667,140 213,140 z"
   id="path169"
   style="fill:#91a7d4;fill-rule:evenodd" />
		<path
   d="M 240,140 C 242.236,140.431 240.405,144.929 241,147 C 241,147.333 241,147.667 241,148 C 238.812,149.479 235.617,149.95 234,152 C 233.667,152 233.333,152 233,152 C 233,154.333 233,156.667 233,159 C 230.445,158.555 228.402,157.598 227,156 C 227,153.333 227,150.667 227,148 C 230.878,144.878 236.122,143.122 240,140 z"
   id="path171"
   style="fill:#f7f8fa;fill-rule:evenodd" />
		<path
   d="M 128,147 C 128.937,150.063 133.543,149.457 135,152 C 131.122,155.122 125.878,156.878 122,160 C 117.088,157.578 112.314,155.02 108,152 C 109.617,149.95 112.812,149.479 115,148 C 115,147.667 115,147.333 115,147 C 120.494,144.235 122.506,144.235 128,147 z"
   id="path173"
   style="fill:#ffc000;fill-rule:evenodd" />
		<path
   d="M 261,152 C 257.122,155.122 251.878,156.878 248,160 C 243.089,157.578 238.314,155.02 234,152 C 235.617,149.95 238.813,149.479 241,148 C 241,147.667 241,147.333 241,147 C 244.073,146.739 245.497,144.83 248,144 C 251.878,147.122 257.122,148.878 261,152 z"
   id="path175"
   style="fill:#ffc000;fill-rule:evenodd" />
		<path
   d="M 108,152 C 112.314,155.02 117.088,157.578 122,160 C 122,165.333 122,170.667 122,176 C 121.969,176.535 121.816,177.281 121,177 C 119.312,176.418 116.491,174.415 114,173 C 111.388,171.517 108.342,170.009 107,168 C 107,166 107,164 107,162 C 107,158.667 107,155.333 107,152 C 107.333,152 107.667,152 108,152 z"
   id="path177"
   style="fill:#91a7d4;fill-rule:evenodd" />
		<path
   d="M 135,152 C 137.28,153.387 135.373,158.961 136,162 C 136,164.333 136,166.667 136,169 C 130.833,170.833 127.646,174.646 122,176 C 122,170.667 122,165.333 122,160 C 125.878,156.878 131.122,155.122 135,152 z"
   id="path179"
   style="fill:#f7f8fa;fill-rule:evenodd" />
		<path
   d="M 234,152 C 238.314,155.02 243.089,157.578 248,160 C 248,165.333 248,170.667 248,176 C 246.752,178.142 243.901,173.511 241,174 C 240.373,170.961 242.28,165.387 240,164 C 238.543,161.457 233.937,162.063 233,159 C 233,156.667 233,154.333 233,152 C 233.333,152 233.667,152 234,152 z"
   id="path181"
   style="fill:#91a7d4;fill-rule:evenodd" />
		<path
   d="M 261,152 C 263.313,155.687 261.349,163.651 262,169 C 256.833,170.833 253.646,174.646 248,176 C 248,170.667 248,165.333 248,160 C 251.878,156.878 257.122,155.122 261,152 z"
   id="path183"
   style="fill:#f7f8fa;fill-rule:evenodd" />
		<path
   d="M 30,164 C 26.122,167.122 20.878,168.878 17,172 C 12.088,169.578 7.314,167.02 3,164 C 7.314,160.98 12.088,158.422 17,156 C 20.878,159.122 26.122,160.878 30,164 z"
   id="path185"
   style="fill:#ffc000;fill-rule:evenodd" />
		<path
   d="M 227,156 C 228.402,157.598 230.445,158.555 233,159 C 233.937,162.063 238.543,161.457 240,164 C 236.122,167.122 230.878,168.878 227,172 C 222.089,169.578 217.314,167.02 213,164 C 214.091,161.758 217.909,162.242 219,160 C 221.685,158.685 224.315,157.315 227,156 z"
   id="path187"
   style="fill:#ffc000;fill-rule:evenodd" />
		<path
   d="M 3,164 C 7.314,167.02 12.088,169.578 17,172 C 17,177.333 17,182.667 17,188 C 16.977,188.521 16.807,189.301 16,189 C 14.258,188.351 11.541,186.443 9,185 C 6.388,183.517 3.342,182.009 2,180 C 2,174.667 2,169.333 2,164 C 2.333,164 2.667,164 3,164 z"
   id="path189"
   style="fill:#91a7d4;fill-rule:evenodd" />
		<path
   d="M 30,164 C 32.236,164.431 30.405,168.929 31,171 C 31,171.333 31,171.667 31,172 C 28.812,173.479 25.617,173.95 24,176 C 23.667,176 23.333,176 23,176 C 23,179.333 23,182.667 23,186 C 20.072,185.739 19.928,188.261 17,188 C 17,182.667 17,177.333 17,172 C 20.878,168.878 26.122,167.122 30,164 z"
   id="path191"
   style="fill:#f7f8fa;fill-rule:evenodd" />
		<path
   d="M 213,164 C 217.314,167.02 222.089,169.578 227,172 C 227,177.333 227,182.667 227,188 C 225.752,190.142 222.901,185.511 220,186 C 219.373,182.961 221.28,177.387 219,176 C 217.543,173.457 212.937,174.063 212,171 C 212.595,168.929 210.764,164.431 213,164 z"
   id="path193"
   style="fill:#91a7d4;fill-rule:evenodd" />
		<path
   d="M 240,164 C 242.28,165.387 240.373,170.961 241,174 C 241,176.333 241,178.667 241,181 C 235.833,182.833 232.646,186.646 227,188 C 227,182.667 227,177.333 227,172 C 230.878,168.878 236.122,167.122 240,164 z"
   id="path195"
   style="fill:#f7f8fa;fill-rule:evenodd" />
		<path
   d="M 51,176 C 47.122,179.122 41.878,180.878 38,184 C 33.088,181.578 28.314,179.02 24,176 C 25.617,173.95 28.812,173.479 31,172 C 31,171.667 31,171.333 31,171 C 34.073,170.739 35.497,168.83 38,168 C 41.878,171.122 47.122,172.878 51,176 z"
   id="path197"
   style="fill:#ffc000;fill-rule:evenodd" />
		<path
   d="M 212,171 C 212.937,174.063 217.543,173.457 219,176 C 215.122,179.122 209.878,180.878 206,184 C 201.089,181.578 196.314,179.02 192,176 C 196.314,172.98 201.089,170.422 206,168 C 207.402,169.598 209.445,170.555 212,171 z"
   id="path199"
   style="fill:#ffc000;fill-rule:evenodd" />
		<path
   d="M 24,176 C 28.314,179.02 33.088,181.578 38,184 C 38,189.333 38,194.667 38,200 C 37.969,200.535 37.817,201.281 37,201 C 35.312,200.418 32.491,198.415 30,197 C 27.388,195.517 24.342,194.009 23,192 C 23,190 23,188 23,186 C 23,182.667 23,179.333 23,176 C 23.333,176 23.667,176 24,176 z"
   id="path201"
   style="fill:#91a7d4;fill-rule:evenodd" />
		<path
   d="M 51,176 C 53.236,176.431 51.405,180.929 52,183 C 52,183.333 52,183.667 52,184 C 49.812,185.479 46.617,185.95 45,188 C 44.667,188 44.333,188 44,188 C 44,191.333 44,194.667 44,198 C 41.072,197.739 40.928,200.261 38,200 C 38,194.667 38,189.333 38,184 C 41.878,180.878 47.122,179.122 51,176 z"
   id="path203"
   style="fill:#f7f8fa;fill-rule:evenodd" />
		<path
   d="M 192,176 C 196.314,179.02 201.089,181.578 206,184 C 206,189.333 206,194.667 206,200 C 204.752,202.142 201.901,197.511 199,198 C 198.373,194.961 200.28,189.387 198,188 C 196.543,185.457 191.937,186.063 191,183 C 191,180.667 191,178.333 191,176 C 191.333,176 191.667,176 192,176 z"
   id="path205"
   style="fill:#91a7d4;fill-rule:evenodd" />
		<path
   d="M 219,176 C 221.28,177.387 219.373,182.961 220,186 C 220,188.333 220,190.667 220,193 C 214.833,194.833 211.646,198.646 206,200 C 206,194.667 206,189.333 206,184 C 209.878,180.878 215.122,179.122 219,176 z"
   id="path207"
   style="fill:#f7f8fa;fill-rule:evenodd" />
		<path
   d="M 72,188 C 68.122,191.122 62.878,192.878 59,196 C 54.088,193.578 49.314,191.02 45,188 C 46.617,185.95 49.812,185.479 52,184 C 52,183.667 52,183.333 52,183 C 55.073,182.739 56.497,180.83 59,180 C 62.878,183.122 68.122,184.878 72,188 z"
   id="path209"
   style="fill:#ffc000;fill-rule:evenodd" />
		<path
   d="M 191,183 C 191.937,186.063 196.543,185.457 198,188 C 194.122,191.122 188.878,192.878 185,196 C 180.089,193.578 175.314,191.02 171,188 C 175.314,184.98 180.089,182.422 185,180 C 186.402,181.598 188.445,182.555 191,183 z"
   id="path211"
   style="fill:#ffc000;fill-rule:evenodd" />
		<path
   d="M 45,188 C 49.314,191.02 54.088,193.578 59,196 C 59,201.333 59,206.667 59,212 C 58.969,212.535 58.817,213.281 58,213 C 56.312,212.418 53.491,210.415 51,209 C 48.388,207.517 45.342,206.009 44,204 C 44,202 44,200 44,198 C 44,194.667 44,191.333 44,188 C 44.333,188 44.667,188 45,188 z"
   id="path213"
   style="fill:#91a7d4;fill-rule:evenodd" />
		<path
   d="M 72,188 C 74.236,188.431 72.405,192.929 73,195 C 73,195.333 73,195.667 73,196 C 70.812,197.479 67.617,197.95 66,200 C 65.667,200 65.333,200 65,200 C 65,203.333 65,206.667 65,210 C 62.072,209.739 61.928,212.261 59,212 C 59,206.667 59,201.333 59,196 C 62.878,192.878 68.122,191.122 72,188 z"
   id="path215"
   style="fill:#f7f8fa;fill-rule:evenodd" />
		<path
   d="M 171,188 C 175.314,191.02 180.089,193.578 185,196 C 185,201.333 185,206.667 185,212 C 183.752,214.142 180.901,209.511 178,210 C 177.373,206.961 179.28,201.387 177,200 C 175.543,197.457 170.937,198.063 170,195 C 170,192.667 170,190.333 170,188 C 170.333,188 170.667,188 171,188 z"
   id="path217"
   style="fill:#91a7d4;fill-rule:evenodd" />
		<path
   d="M 198,188 C 200.28,189.387 198.373,194.961 199,198 C 199,200.333 199,202.667 199,205 C 193.833,206.833 190.646,210.646 185,212 C 185,206.667 185,201.333 185,196 C 188.878,192.878 194.122,191.122 198,188 z"
   id="path219"
   style="fill:#f7f8fa;fill-rule:evenodd" />
		<path
   d="M 93,200 C 89.122,203.122 83.878,204.878 80,208 C 75.088,205.578 70.314,203.02 66,200 C 67.617,197.95 70.812,197.479 73,196 C 73,195.667 73,195.333 73,195 C 76.073,194.739 77.497,192.83 80,192 C 83.878,195.122 89.122,196.878 93,200 z"
   id="path221"
   style="fill:#ffc000;fill-rule:evenodd" />
		<path
   d="M 170,195 C 170.937,198.063 175.543,197.457 177,200 C 173.122,203.122 167.878,204.878 164,208 C 159.089,205.578 154.314,203.02 150,200 C 154.314,196.98 159.089,194.422 164,192 C 165.402,193.598 167.445,194.555 170,195 z"
   id="path223"
   style="fill:#ffc000;fill-rule:evenodd" />
		<path
   d="M 66,200 C 70.314,203.02 75.088,205.578 80,208 C 80,213.333 80,218.667 80,224 C 79.969,224.535 79.817,225.281 79,225 C 77.312,224.418 74.491,222.415 72,221 C 69.388,219.517 66.342,218.009 65,216 C 65,214 65,212 65,210 C 65,206.667 65,203.333 65,200 C 65.333,200 65.667,200 66,200 z"
   id="path225"
   style="fill:#91a7d4;fill-rule:evenodd" />
		<path
   d="M 93,200 C 95.236,200.431 93.405,204.929 94,207 C 94,207.333 94,207.667 94,208 C 91.812,209.479 88.617,209.95 87,212 C 86.667,212 86.333,212 86,212 C 86,215.333 86,218.667 86,222 C 83.072,221.739 82.928,224.261 80,224 C 80,218.667 80,213.333 80,208 C 83.878,204.878 89.122,203.122 93,200 z"
   id="path227"
   style="fill:#f7f8fa;fill-rule:evenodd" />
		<path
   d="M 150,200 C 154.314,203.02 159.089,205.578 164,208 C 164,213.333 164,218.667 164,224 C 162.752,226.142 159.901,221.511 157,222 C 156.373,218.961 158.28,213.387 156,212 C 154.543,209.457 149.937,210.063 149,207 C 149,204.667 149,202.333 149,200 C 149.333,200 149.667,200 150,200 z"
   id="path229"
   style="fill:#91a7d4;fill-rule:evenodd" />
		<path
   d="M 177,200 C 179.28,201.387 177.373,206.961 178,210 C 178,212.333 178,214.667 178,217 C 172.833,218.833 169.646,222.646 164,224 C 164,218.667 164,213.333 164,208 C 167.878,204.878 173.122,203.122 177,200 z"
   id="path231"
   style="fill:#f7f8fa;fill-rule:evenodd" />
		<path
   d="M 114,212 C 110.122,215.122 104.878,216.878 101,220 C 96.088,217.578 91.314,215.02 87,212 C 88.617,209.95 91.812,209.479 94,208 C 94,207.667 94,207.333 94,207 C 97.073,206.739 98.497,204.83 101,204 C 104.878,207.122 110.122,208.878 114,212 z"
   id="path233"
   style="fill:#ffc000;fill-rule:evenodd" />
		<path
   d="M 149,207 C 149.937,210.063 154.543,209.457 156,212 C 152.122,215.122 146.878,216.878 143,220 C 138.089,217.578 133.314,215.02 129,212 C 133.314,208.98 138.089,206.422 143,204 C 144.402,205.598 146.445,206.555 149,207 z"
   id="path235"
   style="fill:#ffc000;fill-rule:evenodd" />
		<path
   d="M 87,212 C 91.314,215.02 96.088,217.578 101,220 C 101,225.333 101,230.667 101,236 C 100.969,236.535 100.817,237.281 100,237 C 98.312,236.418 95.491,234.415 93,233 C 90.388,231.517 87.342,230.009 86,228 C 86,226 86,224 86,222 C 86,218.667 86,215.333 86,212 C 86.333,212 86.667,212 87,212 z"
   id="path237"
   style="fill:#91a7d4;fill-rule:evenodd" />
		<path
   d="M 114,212 C 116.236,212.431 114.405,216.929 115,219 C 115,219.333 115,219.667 115,220 C 112.812,221.479 109.617,221.95 108,224 C 107.667,224 107.333,224 107,224 C 107,227.333 107,230.667 107,234 C 104.072,233.739 103.928,236.261 101,236 C 101,230.667 101,225.333 101,220 C 104.878,216.878 110.122,215.122 114,212 z"
   id="path239"
   style="fill:#f7f8fa;fill-rule:evenodd" />
		<path
   d="M 129,212 C 133.314,215.02 138.089,217.578 143,220 C 143,225.333 143,230.667 143,236 C 141.752,238.142 138.901,233.511 136,234 C 135.373,230.961 137.28,225.387 135,224 C 133.543,221.457 128.937,222.063 128,219 C 128,216.667 128,214.333 128,212 C 128.334,212 128.666,212 129,212 z"
   id="path241"
   style="fill:#91a7d4;fill-rule:evenodd" />
		<path
   d="M 156,212 C 158.28,213.387 156.373,218.961 157,222 C 157,224.333 157,226.667 157,229 C 151.833,230.833 148.646,234.646 143,236 C 143,230.667 143,225.333 143,220 C 146.878,216.878 152.122,215.122 156,212 z"
   id="path243"
   style="fill:#f7f8fa;fill-rule:evenodd" />
		<path
   d="M 128,219 C 128.937,222.063 133.543,221.457 135,224 C 131.122,227.122 125.878,228.878 122,232 C 117.088,229.578 112.314,227.02 108,224 C 109.617,221.95 112.812,221.479 115,220 C 115,219.667 115,219.333 115,219 C 120.494,216.235 122.506,216.235 128,219 z"
   id="path245"
   style="fill:#ffc000;fill-rule:evenodd" />
		<path
   d="M 108,224 C 112.314,227.02 117.088,229.578 122,232 C 122,237.333 122,242.667 122,248 C 121.969,248.535 121.816,249.281 121,249 C 119.312,248.418 116.491,246.415 114,245 C 111.388,243.517 108.342,242.009 107,240 C 107,238 107,236 107,234 C 107,230.667 107,227.333 107,224 C 107.333,224 107.667,224 108,224 z"
   id="path247"
   style="fill:#91a7d4;fill-rule:evenodd" />
		<path
   d="M 135,224 C 137.28,225.387 135.373,230.961 136,234 C 136,236.333 136,238.667 136,241 C 130.833,242.833 127.646,246.646 122,248 C 122,242.667 122,237.333 122,232 C 125.878,228.878 131.122,227.122 135,224 z"
   id="path249"
   style="fill:#f7f8fa;fill-rule:evenodd" />
	</g>
</g>
</svg>